<?xml version="1.0" encoding="utf-8"?>
<!-- Generator: Adobe Illustrator 19.0.0, SVG Export Plug-In . SVG Version: 6.00 Build 0)  -->
<svg version="1.1" id="Capa_1" xmlns="http://www.w3.org/2000/svg" xmlns:xlink="http://www.w3.org/1999/xlink" x="0px" y="0px"
	 viewBox="-67 191.1 460.8 460.8" style="enable-background:new -67 191.1 460.8 460.8;" xml:space="preserve">
<style type="text/css">
	.st0{fill:#084165;}
</style>
<g>
	<g>
		<path class="st0" d="M164.3,208.2C106.6,208,51,230.4,9.5,270.5v-62.3c0-9.4-7.6-17.1-17.1-17.1s-17.1,7.6-17.1,17.1v102.4
			c0,7.3,4.7,13.9,11.7,16.2l102.4,34.1c9,3,18.6-1.9,21.6-10.8c3-9-1.9-18.6-10.8-21.6l-75.6-25.2c69.8-76.1,188.1-81.1,264.2-11.3
			s81.1,188.1,11.3,264.2s-188.1,81.1-264.2,11.3C-10.8,524.7-32.5,461.1-22,398.7c1.7-9.3-4.5-18.1-13.8-19.8
			c-9.3-1.7-18.1,4.5-19.8,13.8c0,0.1,0,0.2-0.1,0.3c-2,12.2-3.1,24.6-3.1,37c0.1,122.5,99.4,221.7,221.9,221.9
			c122.5,0.3,222.1-98.7,222.5-221.3C385.9,308.1,286.8,208.5,164.3,208.2z"/>
	</g>
</g>
</svg>
