<?xml version="1.0" encoding="utf-8"?>
<!-- Generator: Adobe Illustrator 19.0.0, SVG Export Plug-In . SVG Version: 6.00 Build 0)  -->
<svg version="1.1" id="Capa_1" xmlns="http://www.w3.org/2000/svg" xmlns:xlink="http://www.w3.org/1999/xlink" x="0px" y="0px"
	 viewBox="-41 164.9 512 512" style="enable-background:new -41 164.9 512 512;" xml:space="preserve">
<style type="text/css">
	.st0{fill:#084165;}
</style>
<g>
	<g>
		<path class="st0" d="M430.5,646.9H420c0-14.4,0-456.1,0-467c0-8.3-6.7-15-15-15H25c-8.3,0-15,6.7-15,15c0,41.1,0,444.2,0,467H-0.5
			c-8.3,0-15,6.7-15,15s6.7,15,15,15h51c8.3,0,15-6.7,15-15s-6.7-15-15-15H40v-21h350v21h-10.5c-8.3,0-15,6.7-15,15s6.7,15,15,15h51
			c8.3,0,15-6.7,15-15S438.8,646.9,430.5,646.9z M390,544.9H40v-109h350V544.9z M390,354.9H40v-109h350V354.9z"/>
	</g>
</g>
</svg>
