<?xml version="1.0" encoding="utf-8"?>
<!-- Generator: Adobe Illustrator 19.0.0, SVG Export Plug-In . SVG Version: 6.00 Build 0)  -->
<svg version="1.1" id="Capa_1" xmlns="http://www.w3.org/2000/svg" xmlns:xlink="http://www.w3.org/1999/xlink" x="0px" y="0px"
	 viewBox="-41 164.9 512 512" style="enable-background:new -41 164.9 512 512;" xml:space="preserve">
<style type="text/css">
	.st0{fill:#084165;}
</style>
<g>
	<g>
		<path class="st0" d="M345.7,469.3c-35.6,0-64.5,29-64.5,64.5c0,35.6,29,64.5,64.5,64.5c35.6,0,64.5-29,64.5-64.5
			C410.2,498.2,381.3,469.3,345.7,469.3z M345.7,566.1c-17.8,0-32.3-14.5-32.3-32.3s14.5-32.3,32.3-32.3c17.8,0,32.3,14.5,32.3,32.3
			C378,551.6,363.5,566.1,345.7,566.1z"/>
	</g>
</g>
<g>
	<g>
		<path class="st0" d="M125.2,469.3c-35.6,0-64.5,29-64.5,64.5c0,35.6,29,64.5,64.5,64.5s64.5-29,64.5-64.5
			C189.7,498.2,160.8,469.3,125.2,469.3z M125.2,566.1c-17.8,0-32.3-14.5-32.3-32.3s14.5-32.3,32.3-32.3c17.8,0,32.3,14.5,32.3,32.3
			C157.5,551.6,143,566.1,125.2,566.1z"/>
	</g>
</g>
<g>
	<g>
		<path class="st0" d="M389.1,284.6c-2.7-5.4-8.3-8.9-14.4-8.9h-85v32.3h75l43.9,87.4l28.8-14.5L389.1,284.6z"/>
	</g>
</g>
<g>
	<g>
		<rect x="175.2" y="518.2" class="st0" width="122.1" height="32.3"/>
	</g>
</g>
<g>
	<g>
		<path class="st0" d="M76.8,518.2H20.8c-8.9,0-16.1,7.2-16.1,16.1c0,8.9,7.2,16.1,16.1,16.1h55.9c8.9,0,16.1-7.2,16.1-16.1
			C92.9,525.5,85.7,518.2,76.8,518.2z"/>
	</g>
</g>
<g>
	<g>
		<path class="st0" d="M467.6,419.6l-31.7-40.9c-3-3.9-7.8-6.2-12.7-6.2H305.9V259.5c0-8.9-7.2-16.1-16.1-16.1H20.8
			c-8.9,0-16.1,7.2-16.1,16.1c0,8.9,7.2,16.1,16.1,16.1h252.8v112.9c0,8.9,7.2,16.1,16.1,16.1h125.5l23.5,30.3v83.2h-44.6
			c-8.9,0-16.1,7.2-16.1,16.1c0,8.9,7.2,16.1,16.1,16.1h60.8c8.9,0,16.1-7.2,16.1-16.1V429.5C471,425.9,469.8,422.4,467.6,419.6z"/>
	</g>
</g>
<g>
	<g>
		<path class="st0" d="M75.7,436.5H1.5c-8.9,0-16.1,7.2-16.1,16.1c0,8.9,7.2,16.1,16.1,16.1h74.2c8.9,0,16.1-7.2,16.1-16.1
			C91.8,443.7,84.6,436.5,75.7,436.5z"/>
	</g>
</g>
<g>
	<g>
		<path class="st0" d="M112.8,373H-24.9c-8.9,0-16.1,7.2-16.1,16.1c0,8.9,7.2,16.1,16.1,16.1h137.7c8.9,0,16.1-7.2,16.1-16.1
			C128.9,380.2,121.7,373,112.8,373z"/>
	</g>
</g>
<g>
	<g>
		<path class="st0" d="M139.2,309.6H1.5c-8.9,0-16.1,7.2-16.1,16.1c0,8.9,7.2,16.1,16.1,16.1h137.7c8.9,0,16.1-7.2,16.1-16.1
			C155.3,316.8,148.1,309.6,139.2,309.6z"/>
	</g>
</g>
</svg>
